<svg id="Layer_1" data-name="Layer 1" xmlns="http://www.w3.org/2000/svg" viewBox="0 0 296.36 397.74"><title>eye</title><path d="M60.93,213.57c2,.25,3.71.52,5.45.66,2.62.22,5-.88,7.15-2,4.34-2.29,8.6-4.76,12.8-7.33,4.89-3,9.66-6.18,14.49-9.28,3.77-2.4,7.61-4.7,11.3-7.21a39.92,39.92,0,0,1,8.35-3.9c3.12-1.21,6-3.14,8.89-4.8,2-1.14,4-2.33,6-3.55,2.69-1.66,5.29-3.48,8-5,4.92-2.79,9.7-5.84,15.27-7.34,1.91-.52,3.53-2,5.42-2.68,3.86-1.3,7.75-2.77,11.74-3.34a66.71,66.71,0,0,1,11.26-.57,44.13,44.13,0,0,1,10.16,1.38c6,1.58,12.15,2.89,17.73,5.82,2.87,1.5,5.67,3.17,8.55,4.65,2.18,1.12,4.55,1.9,6.65,3.14q5.64,3.33,11,7.06c3.89,2.69,7.74,5.45,11.4,8.42,3.18,2.58,6,5.53,9.11,8.24,2.52,2.23,5.07,4.43,7.71,6.52,4,3.19,8.13,6.3,12.24,9.38,2.89,2.16,5.91,4.16,8.79,6.35,2.37,1.8,4.61,3.77,6.91,5.68.26.22.71.52.69.75-.21,2.28,1.63,2.4,3,3.19.84.47,1.89,1.85,1.72,2.55a4.65,4.65,0,0,1-2.32,3c-4.75,1.74-9,4.43-13.43,6.69-4.3,2.17-7.78,5.37-11.78,7.88-2.88,1.8-5.54,3.93-8.35,5.83-2.17,1.46-4.52,2.67-6.62,4.23-1.91,1.41-3.52,3.21-5.39,4.69-3,2.39-6.16,4.63-9.21,7-1.29,1-2.46,2.14-3.74,3.16-5.36,4.29-10.69,8.64-16.15,12.81-2.36,1.8-5,3.22-7.52,4.81a54,54,0,0,1-5.57,3.49c-2.48,1.19-5.13,2-7.71,3-1.43.56-2.83,1.23-4.29,1.71a51.62,51.62,0,0,1-6.9,2c-4.19.72-8.42,1.3-12.65,1.66a39,39,0,0,1-13.11-.8,56.28,56.28,0,0,1-9.41-3.17c-4.78-2.18-9.35-4.82-14.07-7.13-7.28-3.56-13.31-8.88-19.67-13.72a85.48,85.48,0,0,1-6.75-6.18c-3.4-3.22-6.95-6.32-10.11-9.77-3.89-4.25-7.31-8.93-11.18-13.2a114.48,114.48,0,0,0-9.09-8.66c-3.54-3.13-7.19-6.14-10.89-9.08C74,228.26,71,226.19,68.08,224a19.46,19.46,0,0,0-10.5-4.33,4.18,4.18,0,0,1-2.38-.91c-.7-.63-1.61-1.76-1.44-2.43A3.57,3.57,0,0,1,56,214.2,28,28,0,0,1,60.93,213.57Zm85.57,65.26c1.53,3.27,4.47,5,7.34,6.5,5.76,3,11.73,5.59,17.69,8.18a14.12,14.12,0,0,0,5.59,1.35c5.48-.05,11,.2,16.37-1.49a103.08,103.08,0,0,0,11.5-3.92,46.85,46.85,0,0,0,8-5.28c4.39-3.22,8.68-6.58,13-9.86a31.22,31.22,0,0,0,7.38-7.44,12,12,0,0,0,1.34-4.45c.8-4.36,1.89-8.72,2.1-13.12a148.34,148.34,0,0,0-.41-17.25A69.88,69.88,0,0,0,232.75,213c-2-5.63-4.11-11.25-7.16-16.41a97.41,97.41,0,0,0-6.81-10.13c-4.59-5.92-9.4-11.66-14.14-17.46a3.19,3.19,0,0,0-1.35-1.08,97.85,97.85,0,0,0-10.57-2.9,37,37,0,0,0-16.15.36c-2.32.63-4.73,1-7,1.78-1.71.61-3.19,1.84-4.85,2.63-3.12,1.48-6.3,2.85-9.47,4.28,1.35,2.29,1.2,3.45-.3,5.48a44.77,44.77,0,0,0-3.17,4.88c-.74,1.29-1.18,2.74-1.86,4.07-1.2,2.33-2.74,4.51-3.66,6.93-1.84,4.88-3.11,10-5.06,14.79a59.08,59.08,0,0,0-3.55,14.21,88.46,88.46,0,0,0-.73,9.77,84.47,84.47,0,0,0,1,18.11c.19,1,.51,2,.75,3a10,10,0,0,0,.33,1.59c1.75,4,3.66,8,5.27,12,1.13,2.89,1.89,5.94,2.75,8.94C147.1,278.13,146.68,278.52,146.5,278.83Zm-6-95.83a8,8,0,0,0-1.11.4c-1.69.94-3.38,1.88-5,2.89-2.37,1.44-4.58,3.22-7.08,4.37-5.65,2.58-11.4,4.94-16.09,9.2A17.05,17.05,0,0,1,108,202c-1.82,1-3.81,1.76-5.55,2.89-4.19,2.73-8.19,5.74-12.44,8.37-3.2,2-6.66,3.58-10,5.29-1.21.61-1.07,1.07,0,1.62a15.09,15.09,0,0,1,2.33,1.21c3.49,2.74,6.93,5.53,10.39,8.31,3.63,2.91,7.42,5.65,10.84,8.79s6.66,6.68,9.82,10.17c4.43,4.92,8.72,10,13.1,14.95a1,1,0,0,0,.86.26.92.92,0,0,0,.45-.78,8.12,8.12,0,0,0-.51-1.81c-.63-1.7-1.38-3.35-1.92-5.07-.32-1-.16-2.13-.49-3.11-1.94-5.89-1.69-11.94-1.3-18,.18-2.68.79-5.33,1.09-8,.26-2.23.31-4.48.53-6.72.06-.59.68-1.22.55-1.7-.69-2.58,1-4.24,1.92-6a4.74,4.74,0,0,1-.08-1.59c.94-2.52,1.87-5,3-7.49,2-4.49,4.08-9,6.2-13.39.65-1.38,1.58-2.62,2.3-4C139.58,185.34,140,184.26,140.53,183Zm149.2,45.94c-3.68-2.83-7-5.48-10.44-8-6.18-4.64-12.41-9.21-18.58-13.85-1.49-1.13-2.47-2.73-4-3.9-4.35-3.23-8.18-7.14-12.4-10.54-5.08-4.1-10.34-8-15.55-11.9a6,6,0,0,0-1.36-.59l-.27.38c.46.65.91,1.32,1.38,1.95,3.09,4.15,6.32,8.2,9.21,12.48,1.29,1.9,1.87,4.27,2.86,6.38A89.89,89.89,0,0,1,247,220.76a74,74,0,0,1,1.33,10.51c.26,3.8-.08,7.66.38,11.43a34.38,34.38,0,0,1-.35,8.43,47.32,47.32,0,0,0,0,5.1C261.53,246.06,274.6,236.34,289.73,228.94Z" transform="translate(-34.12 -35.09)" style="fill:#fff"/><path d="M193.23,398.08l-.86-.45c0,.26-.05.41,0,.47,1.43,1.55.54,3.39.47,5-.24,4.85-.71,9.7-1.15,14.54-.37,3.93-.72,7.87-1.32,11.77a3.73,3.73,0,0,1-2,2.47c-2.19.88-4.56,1.36-6.89.28s-2.79-2.16-2.57-4.67c.76-8.44,1.44-16.89,2.14-25.34.47-5.63,1.09-11.25,1.34-16.88.24-5.43.09-10.88.13-16.32,0-5.26,0-10.52.16-15.77.18-7.15.5-14.3.69-21.45.06-1.95-.2-3.9-.16-5.85a2,2,0,0,1,2-2c2.79-.3,8,1.07,8.76,4.32a23.73,23.73,0,0,1,.54,4.68c.08,2.32,0,4.65-.05,7-.17,5.41-.23,10.83-.65,16.22-.3,3.75.25,7.43.19,11.16-.1,5.94.17,11.88.05,17.82C194,389.36,193.55,393.64,193.23,398.08Z" transform="translate(-34.12 -35.09)" style="fill:#fff"/><path d="M199.84,63.5c0,1.6.08,2.93,0,4.25q-.29,4.35-.72,8.68c-.34,3.56-.79,7.1-1.13,10.66q-.78,8.4-1.45,16.82c-.32,4.21-.6,8.42-.77,12.63s-.33,8.63-.27,13c0,3.44-3.81,6.94-7.14,6.21a4,4,0,0,1-3.12-3.89c.32-5.55.8-11.08,1.12-16.63.22-3.77.23-7.56.43-11.33.28-5.38.61-10.75,1-16.11.14-1.93-.19-4,1.17-5.7a.69.69,0,0,0,.1-.51c-1-4.76.47-9.43.57-14.16,0-.58.58-1.14,1.07-2l-.64-2.92.35-.11.41.87.39-.14-.61-2c.76-1.44,1.53-2.9,2.39-4.51l-1.38-.41.37-.4a17,17,0,0,1-.61-3.38c.12-2.51.42-5,.67-7.52,0-.25.22-.47.3-.72.29-.87,1.31-1.53.1-2.68-.94-.89.79-4.74,2.29-5.62,2.1-1.24,6.78-.65,8.57,1,1.27,1.18.84,2.5.56,3.89-.66,3.34-1.29,6.68-1.87,10-.2,1.13-.19,2.29-.34,3.44-.38,2.83-.78,5.67-1.24,8.49A2,2,0,0,1,199.84,63.5Z" transform="translate(-34.12 -35.09)" style="fill:#fff"/><path d="M216.5,395.84l.86,1.38-1,.64c-.35-1-.68-1.84-1-2.72-2.5-7.43-3.94-15.1-5.57-22.75-1.55-7.28-2.07-14.61-2.67-22-.56-6.84-1.34-13.67-2-20.5a22,22,0,0,1-.43-2.86c.1-2.81,1.58-4.19,4.49-4.33a23,23,0,0,1,3.42-.11c3,.34,4.38,2.1,4.55,5,.24,4.1.76,8.18,1.13,12.28.32,3.54.57,7.08.9,10.62A201.65,201.65,0,0,0,223,375.1c.86,3.9,1.05,7.93,1.62,11.89.15,1,.68,2,.83,3.06.31,2.17.52,4.36.71,6.55.11,1.3-2.28,2.56-4,2.48-2.23-.1-3.36-1.66-4.73-3a8.06,8.06,0,0,0-.64-.52Z" transform="translate(-34.12 -35.09)" style="fill:#fff"/><path d="M159.91,400l-1.87-.45c.12-1.26.19-2.52.37-3.77.54-3.79,1.15-7.57,1.66-11.36s1-7.73,1.4-11.6c.28-2.76.3-5.55.53-8.32.09-1.1.47-2.16.61-3.26.92-6.89,1.93-13.77,2.65-20.68a86.61,86.61,0,0,0,.38-11.39c-.08-3,1.93-4.62,4.46-3.21,2.08,1.17,4.58,2,5.78,4.34a6.54,6.54,0,0,1,1,2.89c-.21,4.21-.62,8.41-1,12.62-.27,3.42-.51,6.85-.83,10.27-.12,1.34-.43,2.65-.65,4-.76,4.67-1.53,9.34-2.27,14-.62,3.91-1,7.89-1.87,11.74-.82,3.58-2.34,7-3.25,10.57a17.72,17.72,0,0,1-3.35,6.6,10,10,0,0,0-1.09,2.64,16.19,16.19,0,0,1-2.6-.43,1.52,1.52,0,0,1-.71-1.1c-.14-1.16,1.6-2.39-.16-3.5Z" transform="translate(-34.12 -35.09)" style="fill:#fff"/><path d="M219,70l1.57,2,.75-2.87-.33-.51a12.57,12.57,0,0,0,2-.15,6.54,6.54,0,0,1,6,1.42c1.4,1.18,1.6,3,1,4.79-1,2.93-1.59,6-2.37,9-1.15,4.36-2.31,8.7-3.44,13-.16.6-.19,1.23-.32,1.84-.61,3-1.29,6-1.82,9-.3,1.75-.36,3.55-.56,5.32-.62,5.23-1.2,10.47-1.91,15.7a9.09,9.09,0,0,1-1.28,4.19,9.62,9.62,0,0,1-3.87,2.69c-1.47.63-5.4-1-6.18-2.43a2.31,2.31,0,0,1-.11-1.64c1.72-5.41,1.87-11,2.27-16.62a131.15,131.15,0,0,1,1.9-14.2c.86-4.8,2.06-9.54,3.16-14.29,1-4.31,2.09-8.6,3.09-12.91A32.36,32.36,0,0,0,219,70Z" transform="translate(-34.12 -35.09)" style="fill:#fff"/><path d="M170.6,118.28c-.16-6.74,0-13.49-.55-20.2-.61-7.94-.68-16-2.51-23.78-.76-3.24-1.1-6.58-1.56-9.88-.21-1.55.92-2.19,2.4-1.75,2.48.75,4,2.74,5.85,4.28s1.71,3.86,2.07,5.94c.82,4.87,1.7,9.74,2.31,14.64.53,4.19.82,8.42,1,12.64.3,6.25.33,12.5.65,18.75.24,4.89.79,9.76,1.13,14.64.12,1.69,0,3.4.05,5.1.06,1.29-.64,1.79-1.59,2.57-1.8,1.48-3.33.65-4.34-.44-1.55-1.65-3.2-3.34-3.31-6-.16-3.84-.67-7.66-1-11.49-.16-1.68-.33-3.36-.49-5Z" transform="translate(-34.12 -35.09)" style="fill:#fff"/><path d="M146.45,91.92c.36,3.62.73,7.24,1.08,10.86s.57,7.2,1.06,10.78,1.27,7.08,1.9,10.62,1.23,7.16,1.83,10.74a60.34,60.34,0,0,1,1.12,7.15,4,4,0,0,1-1.46,3,3.49,3.49,0,0,1-3-.38,9.31,9.31,0,0,1-4.39-6.26c-1.13-6.26-2.44-12.48-3.62-18.74-.88-4.64-1.83-9.28-2.43-14-.65-5-.92-10.11-1.38-15.17-.23-2.57-.54-5.13-.71-7.71,0-.61.18-1.6.57-1.79a3.08,3.08,0,0,1,2.36-.11C143.76,83.11,146.76,87.66,146.45,91.92Z" transform="translate(-34.12 -35.09)" style="fill:#fff"/><path d="M241,98.49c-1.21-2.9.35-7.56,4.91-7.39,1.06,0,2.11.14,3.16.11,2.78-.1,4.87,3.49,3.81,5.62-2.21,4.43-3.34,9.21-4.72,13.93a105.42,105.42,0,0,1-5.4,14.18c-1.42,3.11-2.55,6.39-4.42,9.31a3.89,3.89,0,0,1-1.42,1.17c-2.71,1.55-5.33,1-7.89-.41-1.74-1-2-2.65-1.12-4.4,2.35-4.65,4.71-9.31,6.76-14.1,1.41-3.29,2.3-6.8,3.47-10.19.37-1.06,1-2,1.32-3.09.24-.81,0-1.77.25-2.58A9.68,9.68,0,0,1,241,98.49Z" transform="translate(-34.12 -35.09)" style="fill:#fff"/><path d="M242.35,356.1l-.62,1.51a4.18,4.18,0,0,1-2.86-2.51,213,213,0,0,1-9.05-19.67A127.88,127.88,0,0,0,223.76,324c-.65-1.16,0-4.16,1.37-5a9.56,9.56,0,0,1,9.09-.41c1.09.52,1.82,1.88,2.59,2.95a13.15,13.15,0,0,1,1,2.17c2,4.27,4.15,8.45,4.85,13.2.08.54.58,1,.79,1.54.78,2.12,1.51,4.26,2.29,6.38a50.2,50.2,0,0,1,1.88,4.89,35.34,35.34,0,0,1,1.11,6.54c.15,2.31-1.67,4-4.11,3a2.15,2.15,0,0,1-.88-.73C243.32,357.88,243,357.15,242.35,356.1Z" transform="translate(-34.12 -35.09)" style="fill:#fff"/><path d="M137.69,362.78l2-4.56-.35,0-.63-3-.85,1.53-.42-.08.39-2.67,2.57,1.5-1.6-2.92c2.47-2.85,2.47-2.85.87-4.26l.56-3.32,1.68.94,1.44-2-2.7.56c.86-2.31,1.61-4.42,2.42-6.51.56-1.43,1.24-2.81,1.81-4.24,1.84-4.68,3.64-9.37,5.48-14,.56-1.43,1.88-2,3.62-1.18a25.59,25.59,0,0,1,5.13,3.19A3.38,3.38,0,0,1,160,326c-1.79,4-3.44,8-5.29,12-2,4.26-4.27,8.39-6.25,12.65-1.06,2.27-1.66,4.75-2.69,7s-2.35,4.57-3.6,6.82c-.63,1.13-2.3,1-3.22-.18C138.55,363.79,138.11,363.29,137.69,362.78Z" transform="translate(-34.12 -35.09)" style="fill:#fff"/><path d="M119.24,334.28l2.09-1.33-2.52-.89c.46-7.89,3.62-15.24,6.17-22.76.86-2.53,1.39-5.17,2.2-7.73.38-1.19,1-2.14,2.67-1.89,3.39.5,5.8,2.45,7.88,4.93,1.06,1.27.76,2.79.17,4.18-1.78,4.14-3.62,8.24-5.4,12.37-1.87,4.31-3.69,8.64-5.57,12.95a36.12,36.12,0,0,1-1.78,3.37.9.9,0,0,1-.73.41c-.86-.14-1.69-.47-2.56-.57-1.23-.14-1.63-.91-1.85-2C119.92,334.94,119.5,334.62,119.24,334.28Z" transform="translate(-34.12 -35.09)" style="fill:#fff"/><path d="M133.3,147.22a2.67,2.67,0,0,0,.09,3.43c.22.33-.54,1.61-1.12,2.19-.86.85-3.39.34-4.38-.48-3.23-2.66-4-6.57-5.3-10.19-1.55-4.29-3.08-8.59-4.54-12.9q-1.9-5.64-3.65-11.33c-.78-2.56-1.36-5.19-2.14-7.75-.42-1.36-.37-2.64.73-3.47s2.37-.15,3.38.56c2,1.36,4.22,2.5,5.21,4.83a38.18,38.18,0,0,1,2.57,7.4,70.78,70.78,0,0,0,3.79,13.22c1.56,3.8,2.65,7.79,4,11.67A28.16,28.16,0,0,0,133.3,147.22Z" transform="translate(-34.12 -35.09)" style="fill:#fff"/><path d="M267.54,330.33c-.26.54-.57,1.15-.87,1.76-.92,1.92-2.63,2.26-4.38,1.08a9.49,9.49,0,0,0-2.75-.77l-.6,1.2c-1.67-3.07-3.29-6-4.83-8.92-2.15-4.1-4.23-8.23-6.36-12.35-1-1.84-2-3.64-2.92-5.5a3.94,3.94,0,0,1,2.79-5.35c2.44-.51,4.92-.7,6.9.94a13.14,13.14,0,0,1,3.3,4.33c1.83,3.79,3.4,7.7,5,11.58q2,4.59,3.79,9.22C267,328.45,267.25,329.4,267.54,330.33Z" transform="translate(-34.12 -35.09)" style="fill:#fff"/><path d="M95.76,303.34l.82-.67c0-.13,0-.3-.11-.33-1.52-.67-1.53-1.45-.46-2.67.5-.58.42-1.64.75-2.42,2.42-5.71,6-10.69,9.61-15.72.81-1.14,1.58-2.31,2.39-3.45a1.83,1.83,0,0,1,2.65-.55,51.33,51.33,0,0,1,4.92,3.22c3.38,2.58,3.58,4.56.67,7.62A94.09,94.09,0,0,0,106.54,302c-.86,1.32-1.93,2.51-2.88,3.78a4,4,0,0,1-6.78-.71C96.57,304.5,96.16,304,95.76,303.34Z" transform="translate(-34.12 -35.09)" style="fill:#fff"/><path d="M271.16,127.21a5.28,5.28,0,0,1-.57,1.54c-1.29,1.56-2.8,3-4,4.6-1.54,2.17-2.86,4.5-4.22,6.8s-2.63,4.3-3.69,6.57-3.08,2.56-5.22,2.63a7.85,7.85,0,0,1-5.6-2.32,2.88,2.88,0,0,1-.55-3.79,164.6,164.6,0,0,1,11.37-16.85c1-1.27,1.36-3,3.22-3.66a8.32,8.32,0,0,1,8.39,2.07C270.86,125.36,270.9,126.4,271.16,127.21Z" transform="translate(-34.12 -35.09)" style="fill:#fff"/><path d="M79.27,282.59l-2-2.21-.19.23a3.8,3.8,0,0,1,.32-4.69,28.44,28.44,0,0,1,2.65-4.39c3.86-4.7,7.86-9.27,11.75-13.93.84-1,1.81-1.32,2.73-.54a26.15,26.15,0,0,1,4.82,4.69c1.44,2.05.71,4.24-1,6-3,3-5.95,6-9,9-1.53,1.48-3.2,2.83-4.84,4.21A7.93,7.93,0,0,1,79.27,282.59Z" transform="translate(-34.12 -35.09)" style="fill:#fff"/><path d="M102.83,152.75c1.35-.46.69,1,1.09,1.7.91,1.54,2,3,2.84,4.54,1.07,2,2.08,4.12,1.87,6.57-.19,2.12-1.92,3.18-3.6,1.88a23.62,23.62,0,0,1-3.76-4c-1.67-2.11-3.31-4.27-4.77-6.53-2.72-4.25-5.46-8.5-7.88-12.92a61.14,61.14,0,0,1-3.51-8.57c-.55-1.54.42-2.51,2.26-3.41a70.91,70.91,0,0,1,7,5.27c1.29,1.21,1.89,3.16,2.81,4.78,1.77,3.09,3.55,6.17,5.29,9.27A5.86,5.86,0,0,1,102.83,152.75Z" transform="translate(-34.12 -35.09)" style="fill:#fff"/><path d="M53.56,258.05a30,30,0,0,1,2-3.25c2.06-2.51,4.16-5,6.35-7.37,1.89-2.08,3.94-4,5.89-6.06.8-.82,1.76-1.19,2.67-.48a39.61,39.61,0,0,1,5.07,4.4c2.27,2.51,1.68,5.86-1.25,8-1.86,1.37-3.85,2.55-5.78,3.83a4.38,4.38,0,0,0-.39.36c-2.48,1.79-4.93,3.62-7.46,5.34-1.77,1.21-5.75-.56-6.06-2.65a4,4,0,0,1,.3-1.3c.08-.31.13-.62.2-.93Z" transform="translate(-34.12 -35.09)" style="fill:#fff"/><path d="M272.28,161.88a28.58,28.58,0,0,1-4.71-2.47,3.1,3.1,0,0,1-.39-4c2.91-4,5.72-8,8.5-12.12,1.37-2,2.88-3.39,5.57-2.74,1,.23,2.12-.25,3.08,0,3.25.85,4.31,3.24,2.38,5.89-3.18,4.38-6.55,8.64-10.07,12.76C275.62,160.42,273.83,161,272.28,161.88Z" transform="translate(-34.12 -35.09)" style="fill:#fff"/><path d="M85.41,176.81c1.14-.1,2.07,1,2.5,4.81-2.89,1.91-2.89,1.18-5.64-.73-.48-.33-1.43-.07-1.81-.44a20.88,20.88,0,0,1-3.58-4c-2-3.35-3.77-6.85-5.61-10.3a51.65,51.65,0,0,1-2.61-5.34,2.5,2.5,0,0,1,.37-2.3,3.21,3.21,0,0,1,2.65-.34,17.46,17.46,0,0,1,10,10.09,77.89,77.89,0,0,0,3.61,7A4.27,4.27,0,0,1,85.41,176.81Z" transform="translate(-34.12 -35.09)" style="fill:#fff"/><path d="M272.08,284.58a7.15,7.15,0,0,1,7.07,3.85,62.47,62.47,0,0,1,3.4,6.48c.75,1.83,1.9,3.57,1.73,5.75-.07,1,.27,1.78-1.24,1.52a4.6,4.6,0,0,0-1.85.45c-2.5.78-4.19.37-5.71-1.64-2.19-2.9-4.29-5.89-6.42-8.83a4.6,4.6,0,0,0-.53-.7c-1.87-1.76-2.15-2.58-1.06-4.82.74-1.54,2.29-1.94,3.91-2C271.61,284.64,271.85,284.6,272.08,284.58Z" transform="translate(-34.12 -35.09)" style="fill:#fff"/><path d="M288.13,176.77c-1.84-.93-3.53-1.64-5.06-2.62-1-.62-.57-3.33.59-4.64,1.77-2,3.51-4.08,5.4-6s3.85-3.33,6.68-2.08a1.09,1.09,0,0,0,.51,0c1.45-.16,3-.21,3.52,1.45a4.09,4.09,0,0,1-1.26,4.08c-2.18,2.35-3.86,5.16-6.06,7.49C291.43,175.57,289.68,176,288.13,176.77Z" transform="translate(-34.12 -35.09)" style="fill:#fff"/><path d="M55.63,234.46c0,2.72-.63,3.42-3.25,4.08-1.58.39-3.06,1.4-4.62,1.5-2,.13-4.07,1-5.93-.25a5.33,5.33,0,0,1-1.92-2.24A24.77,24.77,0,0,1,38.72,233c0-.26.46-.78.82-1,3-1.4,5.88-2.91,8.94-4a3,3,0,0,1,3.81,1.09C53.49,230.84,55.45,232.07,55.63,234.46Z" transform="translate(-34.12 -35.09)" style="fill:#fff"/><path d="M289.16,263.85c3.79-.38,6,1.9,7.6,4.31a46.29,46.29,0,0,1,4,8.63,2.23,2.23,0,0,1-.73,2.06c-1.43.59-3.41,1.54-4.45,1-1.33-.71-3.14-.71-4.12-2.66-1.36-2.72-3.67-4.95-5.47-7.47-.65-.9-1.89-1.68-1.09-3.19s1.89-2.92,4-2.69Z" transform="translate(-34.12 -35.09)" style="fill:#fff"/><path d="M296.27,188.07c.21-.4.4-1.41,1-1.91a39.38,39.38,0,0,1,11.42-6.78c1.54-.55,2.83,0,4.21.4.26.06.55.49.71.44a1.39,1.39,0,0,1,2,1.07c0,.61-.83,1.37-1.42,1.92-2.31,2.11-4.58,4.29-7.05,6.2-2.15,1.65-4.57,2.83-7.5,2.33C297.51,191.37,296.24,190.29,296.27,188.07Z" transform="translate(-34.12 -35.09)" style="fill:#fff"/><path d="M66.19,198c-2.93,0-5.18-.5-6.94-2.21-2.57-2.49-5.19-5-7.56-7.64-.94-1.06-2.2-2.23-1.68-4.1a1.87,1.87,0,0,1,2.65-1.46,31.34,31.34,0,0,1,4.61,2.67,19.17,19.17,0,0,1,3,2.1c2.29,2.16,4.53,4.38,6.64,6.71a3.41,3.41,0,0,1,.72,2.63C67.54,197.35,66.47,197.79,66.19,198Z" transform="translate(-34.12 -35.09)" style="fill:#fff"/><path d="M316.23,203.56c2,.69,3.77,1.22,5.45,1.91.42.18.95,1,.84,1.37-.41,1.14-.92,3-1.68,3.13-3.87.8-7.64,3.14-11.75,1.44-1-.4-2.25-1.54-2.25-2.33,0-1.2.72-3.09,1.64-3.47A51.29,51.29,0,0,1,316.23,203.56Z" transform="translate(-34.12 -35.09)" style="fill:#fff"/><path d="M321.09,228.63c-1.66-.61-3.31-.84-4.43-1.73-1.72-1.36-1-4.45,1.08-5.37,2.67-1.22,5.42-1,8.2-.61.52.08,1,.18,1.55.23,1.43.14,3,.72,3,2.12a4.08,4.08,0,0,1-2,3.09A55.17,55.17,0,0,1,321.09,228.63Z" transform="translate(-34.12 -35.09)" style="fill:#fff"/><path d="M303.88,252.16c3.59.34,6.6,1.05,8.31,4a4,4,0,0,1,.05,3.18c-.34.71-1.58,1.13-2.5,1.4a5.59,5.59,0,0,1-5.29-1.37c-.83-.66-2.13-.7-3-1.3s-1.88-1.46-1.87-2.19a4.3,4.3,0,0,1,1.61-2.8A7.81,7.81,0,0,1,303.88,252.16Z" transform="translate(-34.12 -35.09)" style="fill:#fff"/><path d="M39.39,204.39c1.81.84,3.66,1.62,5.43,2.55a6.2,6.2,0,0,1,2.29,1.84,2.39,2.39,0,0,1-1.73,3.56c-4,.21-7.68-.49-10.6-3.49a1.93,1.93,0,0,1,.82-3.34,35.67,35.67,0,0,1,3.58-.8Z" transform="translate(-34.12 -35.09)" style="fill:#fff"/><path d="M157.42,236.79c.45-1.84.87-3.26,1.13-4.7.36-1.94.56-3.9.9-5.84.16-1,.2-2.15.78-2.78,1.84-2,1.32-5.16,3.71-6.85.46-.32.2-1.52.6-2.1,1.71-2.51,3.45-5,5.39-7.37a43.93,43.93,0,0,1,4.33-4.06s.07-.11.12-.13c2.55-1.05,5.07-2.23,7.68-3.11a5,5,0,0,1,5.74,2.48c.2.35.41.84.73,1a15,15,0,0,0,4.34,1.39c2.24.11,3.63,1.57,5.12,2.76a34.67,34.67,0,0,1,4.9,4.94c3.13,3.74,6.37,7.43,8.11,12.13a19.35,19.35,0,0,0,1.75,3.38,10.8,10.8,0,0,1,.33,11.36,130.75,130.75,0,0,1-8.19,13.6c-2.32,3.47-5.76,5.3-9.56,6.39a97.89,97.89,0,0,1-11.85,2.63c-2.16.34-4.45-.09-6.68-.19a33.56,33.56,0,0,1-4.71-.28,6.38,6.38,0,0,1-2.67-1.35,47.58,47.58,0,0,1-3.71-3.4,11.89,11.89,0,0,1-1.54-1.92c-2-3-4.5-5.64-4.73-9.67C159.28,242.18,158.08,239.37,157.42,236.79Z" transform="translate(-34.12 -35.09)" style="fill:#fff"/></svg>