<?xml version="1.0" encoding="utf-8"?>
<!-- Generator: Adobe Illustrator 24.3.0, SVG Export Plug-In . SVG Version: 6.00 Build 0)  -->
<svg version="1.1" id="Layer_1" xmlns="http://www.w3.org/2000/svg" xmlns:xlink="http://www.w3.org/1999/xlink" x="0px" y="0px"
	 viewBox="0 0 204.9 1439.9" style="enable-background:new 0 0 204.9 1439.9;" xml:space="preserve">
<style type="text/css">
	.st0{display:none;fill:#246390;}
	.st1{fill:#84DAF5;}
</style>
<polygon class="st0" points="204.9,1857.8 0,1436.9 0,0 204.9,-359.6 "/>
<path class="st1" d="M205.9-0.1l-0.1,48c-0.1,48-0.2,144-0.4,240s-0.3,192-0.4,288c-0.1,96-0.3,192-0.4,288s-0.3,192-0.4,288
	c-0.1,96-0.3,192-0.4,240l-0.1,48l-192-0.3l-5.2-48c-5.6-48-15.5-144,11-240c26.8-96,91-191.9,123.1-287.8s32.3-192-4.9-288
	C98.2,479.8,24.3,383.7,24.2,287.7c0.4-96,74.6-191.9,112.4-239.8l37.4-47.9L205.9-0.1z"/>
</svg>
